<svg width="47" height="42" viewBox="0 0 47 42" fill="none" xmlns="http://www.w3.org/2000/svg">
<path d="M23.735 42C23.0692 42 22.5114 41.776 22.0618 41.328C21.6122 40.88 21.3866 40.3262 21.385 39.6667C21.385 39.3944 21.4437 39.1121 21.5612 38.8197C21.6787 38.5272 21.855 38.2651 22.09 38.0333L32.9587 27.2417L31.255 25.55L20.445 36.3417C20.21 36.575 19.9554 36.75 19.6812 36.8667C19.4071 36.9833 19.1133 37.0417 18.8 37.0417C18.1342 37.0417 17.5764 36.8184 17.1268 36.372C16.6772 35.9256 16.4516 35.371 16.45 34.7083C16.45 34.3194 16.5087 33.9982 16.6262 33.7447C16.7437 33.4911 16.9004 33.2679 17.0962 33.075L27.965 22.2833L26.32 20.65L15.4512 31.3833C15.2162 31.6167 14.9617 31.7917 14.6875 31.9083C14.4133 32.025 14.1 32.0833 13.7475 32.0833C13.1208 32.0833 12.5725 31.85 12.1025 31.3833C11.6325 30.9167 11.3975 30.3722 11.3975 29.75C11.3975 29.4389 11.4562 29.1472 11.5737 28.875C11.6912 28.6028 11.8675 28.35 12.1025 28.1167L22.9712 17.325L21.2675 15.6917L10.4575 26.4833C10.2617 26.6778 10.0267 26.8333 9.7525 26.95C9.47833 27.0667 9.14542 27.125 8.75375 27.125C8.08792 27.125 7.5294 26.901 7.0782 26.453C6.627 26.005 6.40218 25.4512 6.40375 24.7917C6.40375 24.4806 6.4625 24.1889 6.58 23.9167C6.6975 23.6444 6.87375 23.3917 7.10875 23.1583L20.21 10.15L29.0225 18.9583C29.4533 19.3861 29.9625 19.7268 30.55 19.9803C31.1375 20.2339 31.725 20.3599 32.3125 20.3583C33.5658 20.3583 34.6625 19.9212 35.6025 19.047C36.5425 18.1728 37.0125 17.0543 37.0125 15.6917C37.0125 15.1472 36.9146 14.5833 36.7187 14C36.5229 13.4167 36.1704 12.8722 35.6612 12.3667L25.145 1.92501C25.8108 1.30279 26.555 0.826787 27.3775 0.49701C28.2 0.167232 29.0225 0.00156532 29.845 9.7629e-06C30.8633 9.7629e-06 31.8033 0.165677 32.665 0.49701C33.5267 0.828343 34.31 1.34323 35.015 2.04168L44.9437 11.9583C45.6487 12.6583 46.1681 13.4361 46.5018 14.2917C46.8355 15.1472 47.0016 16.1389 47 17.2667C47 18.0444 46.8237 18.8323 46.4712 19.6303C46.1187 20.4283 45.6096 21.1571 44.9437 21.8167L25.38 41.3C25.0667 41.6111 24.7925 41.8056 24.5575 41.8833C24.3225 41.9611 24.0483 42 23.735 42ZM3.58375 23.3333L2.05625 21.8167C1.39042 21.1944 0.88125 20.4556 0.52875 19.6C0.17625 18.7444 0 17.85 0 16.9167C0 15.9056 0.195833 14.9722 0.5875 14.1167C0.979167 13.2611 1.46875 12.5417 2.05625 11.9583L11.985 2.04168C12.6117 1.41945 13.3558 0.923232 14.2175 0.55301C15.0792 0.182787 15.9212 -0.00154579 16.7437 9.7629e-06C17.8012 9.7629e-06 18.7412 0.146232 19.5637 0.438676C20.3862 0.731121 21.1892 1.26545 21.9725 2.04168L34.0162 14C34.2512 14.2333 34.4275 14.4861 34.545 14.7583C34.6625 15.0306 34.7212 15.3222 34.7212 15.6333C34.7212 16.2556 34.4862 16.8 34.0162 17.2667C33.5462 17.7333 32.9979 17.9667 32.3712 17.9667C32.0187 17.9667 31.725 17.9184 31.49 17.822C31.255 17.7256 31.0004 17.5404 30.7262 17.2667L20.1512 6.88334L3.58375 23.3333Z" fill="#F72120"/>
</svg>
