<svg width="48" height="46" viewBox="0 0 48 46" fill="none" xmlns="http://www.w3.org/2000/svg">
<path fill-rule="evenodd" clip-rule="evenodd" d="M45.2093 14.4096C45.2093 11.2972 45.2093 9.7387 44.4569 8.6214C44.1311 8.13707 43.7123 7.72125 43.2246 7.39769C42.24 6.74371 40.9161 6.66169 38.5027 6.65282C38.5101 7.30014 38.5131 7.97259 38.5116 8.67017V11.6386H40.7442C41.1883 11.6386 41.6142 11.8137 41.9282 12.1255C42.2422 12.4373 42.4186 12.8602 42.4186 13.3012C42.4186 13.7422 42.2422 14.1651 41.9282 14.4769C41.6142 14.7887 41.1883 14.9639 40.7442 14.9639H38.5116V18.2892H40.7442C41.1883 18.2892 41.6142 18.4643 41.9282 18.7761C42.2422 19.0879 42.4186 19.5108 42.4186 19.9518C42.4186 20.3928 42.2422 20.8157 41.9282 21.1275C41.6142 21.4393 41.1883 21.6145 40.7442 21.6145H38.5116V24.9398H40.7442C41.1883 24.9398 41.6142 25.1149 41.9282 25.4267C42.2422 25.7385 42.4186 26.1614 42.4186 26.6024C42.4186 27.0434 42.2422 27.4663 41.9282 27.7781C41.6142 28.0899 41.1883 28.2651 40.7442 28.2651H38.5116V42.6747H35.1628V8.86747C35.1628 4.68646 35.1628 2.59817 33.8545 1.29908C32.5462 -1.32136e-07 30.4432 0 26.2326 0H21.7674C17.5568 0 15.4538 -1.32136e-07 14.1455 1.29908C12.8372 2.59817 12.8372 4.68646 12.8372 8.86747V42.6747H9.48837V28.2651H7.25581C6.81173 28.2651 6.38584 28.0899 6.07182 27.7781C5.75781 27.4663 5.5814 27.0434 5.5814 26.6024C5.5814 26.1614 5.75781 25.7385 6.07182 25.4267C6.38584 25.1149 6.81173 24.9398 7.25581 24.9398H9.48837V21.6145H7.25581C6.81173 21.6145 6.38584 21.4393 6.07182 21.1275C5.75781 20.8157 5.5814 20.3928 5.5814 19.9518C5.5814 19.5108 5.75781 19.0879 6.07182 18.7761C6.38584 18.4643 6.81173 18.2892 7.25581 18.2892H9.48837V14.9639H7.25581C6.81173 14.9639 6.38584 14.7887 6.07182 14.4769C5.75781 14.1651 5.5814 13.7422 5.5814 13.3012C5.5814 12.8602 5.75781 12.4373 6.07182 12.1255C6.38584 11.8137 6.81173 11.6386 7.25581 11.6386H9.48837V8.66795C9.48688 7.97333 9.48986 7.30088 9.4973 6.6506C7.08391 6.66169 5.76 6.74371 4.77544 7.39769C4.28769 7.72125 3.86892 8.13707 3.54307 8.6214C2.7907 9.7387 2.7907 11.2972 2.7907 14.4096V42.6747H1.67442C1.23034 42.6747 0.80444 42.8499 0.490426 43.1617C0.176412 43.4735 0 43.8964 0 44.3373C0 44.7783 0.176412 45.2012 0.490426 45.513C0.80444 45.8248 1.23034 46 1.67442 46H46.3256C46.7697 46 47.1956 45.8248 47.5096 45.513C47.8236 45.2012 48 44.7783 48 44.3373C48 43.8964 47.8236 43.4735 47.5096 43.1617C47.1956 42.8499 46.7697 42.6747 46.3256 42.6747H45.2093V14.4096ZM24 4.98795C24.4441 4.98795 24.87 5.16312 25.184 5.47493C25.498 5.78674 25.6744 6.20964 25.6744 6.6506V9.42169H28.4651C28.9092 9.42169 29.3351 9.59686 29.6491 9.90867C29.9631 10.2205 30.1395 10.6434 30.1395 11.0843C30.1395 11.5253 29.9631 11.9482 29.6491 12.26C29.3351 12.5718 28.9092 12.747 28.4651 12.747H25.6744V15.5181C25.6744 15.959 25.498 16.3819 25.184 16.6937C24.87 17.0056 24.4441 17.1807 24 17.1807C23.5559 17.1807 23.13 17.0056 22.816 16.6937C22.502 16.3819 22.3256 15.959 22.3256 15.5181V12.747H19.5349C19.0908 12.747 18.6649 12.5718 18.3509 12.26C18.0369 11.9482 17.8605 11.5253 17.8605 11.0843C17.8605 10.6434 18.0369 10.2205 18.3509 9.90867C18.6649 9.59686 19.0908 9.42169 19.5349 9.42169H22.3256V6.6506C22.3256 6.20964 22.502 5.78674 22.816 5.47493C23.13 5.16312 23.5559 4.98795 24 4.98795ZM17.8605 22.1687C17.8605 21.7277 18.0369 21.3048 18.3509 20.993C18.6649 20.6812 19.0908 20.506 19.5349 20.506H28.4651C28.9092 20.506 29.3351 20.6812 29.6491 20.993C29.9631 21.3048 30.1395 21.7277 30.1395 22.1687C30.1395 22.6096 29.9631 23.0325 29.6491 23.3443C29.3351 23.6562 28.9092 23.8313 28.4651 23.8313H19.5349C19.0908 23.8313 18.6649 23.6562 18.3509 23.3443C18.0369 23.0325 17.8605 22.6096 17.8605 22.1687ZM17.8605 28.8193C17.8605 28.3783 18.0369 27.9554 18.3509 27.6436C18.6649 27.3318 19.0908 27.1566 19.5349 27.1566H28.4651C28.9092 27.1566 29.3351 27.3318 29.6491 27.6436C29.9631 27.9554 30.1395 28.3783 30.1395 28.8193C30.1395 29.2602 29.9631 29.6831 29.6491 29.9949C29.3351 30.3068 28.9092 30.4819 28.4651 30.4819H19.5349C19.0908 30.4819 18.6649 30.3068 18.3509 29.9949C18.0369 29.6831 17.8605 29.2602 17.8605 28.8193ZM24 36.0241C24.4441 36.0241 24.87 36.1993 25.184 36.5111C25.498 36.8229 25.6744 37.2458 25.6744 37.6867V42.6747H22.3256V37.6867C22.3256 37.2458 22.502 36.8229 22.816 36.5111C23.13 36.1993 23.5559 36.0241 24 36.0241Z" fill="#F72120"/>
</svg>
