<svg width="47" height="47" viewBox="0 0 47 47" fill="none" xmlns="http://www.w3.org/2000/svg">
<path d="M23.5 2.61108C19.3685 2.61108 15.3299 3.8362 11.8947 6.1315C8.45958 8.4268 5.7822 11.6892 4.20117 15.5061C2.62013 19.3231 2.20647 23.5231 3.01247 27.5752C3.81847 31.6272 5.80794 35.3493 8.72931 38.2706C11.6507 41.192 15.3727 43.1815 19.4248 43.9875C23.4768 44.7935 27.6769 44.3798 31.4938 42.7988C35.3108 41.2178 38.5732 38.5404 40.8685 35.1052C43.1638 31.6701 44.3889 27.6314 44.3889 23.5C44.3889 17.9599 42.1881 12.6467 38.2707 8.7293C34.3532 4.81187 29.0401 2.61108 23.5 2.61108ZM8.44693 24.8055H5.28748C5.28748 24.3747 5.2222 23.9439 5.2222 23.5C5.2222 23.0561 5.2222 22.6252 5.28748 22.1944H8.44693V24.8055ZM22.1944 5.28747C22.6253 5.28747 23.0561 5.22219 23.5 5.22219C23.9439 5.22219 24.3747 5.2222 24.8055 5.28747V8.44692H22.1944V5.28747ZM24.8055 41.7125C24.3747 41.7125 23.9439 41.7777 23.5 41.7777C23.0561 41.7777 22.6253 41.7777 22.1944 41.7125V38.553H24.8055V41.7125ZM35.25 34.4275C35.1427 34.5551 34.9968 34.6445 34.8344 34.6821C34.672 34.7198 34.5017 34.7037 34.3491 34.6364L20.5625 26.6072L12.5333 12.8205C12.2069 12.2069 13.0425 11.3844 13.6561 11.7239L27.1947 19.988L35.4589 33.5266C35.5262 33.6792 35.5423 33.8494 35.5046 34.0119C35.467 34.1743 35.3776 34.3202 35.25 34.4275ZM38.553 24.8055V22.1944H41.7125C41.7125 22.6252 41.7778 23.0561 41.7778 23.5C41.7778 23.9439 41.7778 24.3747 41.7125 24.8055H38.553Z" fill="#F72120"/>
<path d="M21.8942 25.2626L31.7903 31.0332L25.85 21.3198L21.8942 25.2626Z" fill="#F72120"/>
</svg>
