<svg width="28" height="28" viewBox="0 0 28 28" fill="none" xmlns="http://www.w3.org/2000/svg">
<path d="M14 0C6.2804 0 0 6.2804 0 14C0 21.7196 6.2804 28 14 28C21.7196 28 28 21.7196 28 14C28 6.2804 21.7196 0 14 0ZM2.8 14C2.8 12.7414 3.0184 11.5332 3.4034 10.4034L5.6 12.6L8.4 15.4V18.2L11.2 21L12.6 22.4V25.1034C7.0854 24.4104 2.8 19.7008 2.8 14ZM22.862 20.8222C21.9478 20.0858 20.5618 19.6 19.6 19.6V18.2C19.6 17.4574 19.305 16.7452 18.7799 16.2201C18.2548 15.695 17.5426 15.4 16.8 15.4H11.2V11.2C11.9426 11.2 12.6548 10.905 13.1799 10.3799C13.705 9.8548 14 9.14261 14 8.4V7H15.4C16.1426 7 16.8548 6.705 17.3799 6.1799C17.905 5.6548 18.2 4.94261 18.2 4.2V3.6246C22.2992 5.2892 25.2 9.31 25.2 14C25.1994 16.4705 24.3769 18.8706 22.862 20.8222Z" fill="white"/>
</svg>
