<svg width="34" height="34" viewBox="0 0 34 34" fill="none" xmlns="http://www.w3.org/2000/svg">
<path d="M32.2954 15.1841V10.1068C32.2954 9.20155 31.9372 8.33336 31.2997 7.69324C30.6622 7.05312 29.7975 6.6935 28.8959 6.6935H18.6973V4.45437C19.2158 3.98675 19.5472 3.31433 19.5472 2.55998C19.5472 1.88103 19.2786 1.22989 18.8004 0.749802C18.3223 0.269712 17.6738 0 16.9976 0C16.3214 0 15.6729 0.269712 15.1947 0.749802C14.7166 1.22989 14.4479 1.88103 14.4479 2.55998C14.4479 3.31433 14.7794 3.98675 15.2978 4.45437V6.6935H5.09927C4.19767 6.6935 3.33299 7.05312 2.69545 7.69324C2.05792 8.33336 1.69976 9.20155 1.69976 10.1068V15.2234L1.57738 15.2319C1.14899 15.263 0.748193 15.4557 0.455565 15.7713C0.162936 16.087 0.000173792 16.5022 0 16.9334V20.3468C0 20.7994 0.179081 21.2335 0.497847 21.5535C0.816614 21.8736 1.24895 22.0534 1.69976 22.0534V30.5867C1.69976 31.492 2.05792 32.3601 2.69545 33.0003C3.33299 33.6404 4.19767 34 5.09927 34H28.8959C29.7975 34 30.6622 33.6404 31.2997 33.0003C31.9372 32.3601 32.2954 31.492 32.2954 30.5867V22.0534C32.7462 22.0534 33.1785 21.8736 33.4973 21.5535C33.8161 21.2335 33.9952 20.7994 33.9952 20.3468V17.0393C34.0151 16.7744 33.9732 16.5085 33.8728 16.2627C33.5294 15.4299 32.7934 15.2302 32.2954 15.1841ZM8.49879 16.9334C8.49879 15.0493 9.64103 13.5201 11.0484 13.5201C12.4558 13.5201 13.5981 15.0493 13.5981 16.9334C13.5981 18.8176 12.4558 20.3468 11.0484 20.3468C9.64103 20.3468 8.49879 18.8176 8.49879 16.9334ZM23.7932 27.1734C22.0918 27.1683 10.1985 27.1734 10.1985 27.1734V23.7601C10.1985 23.7601 22.0986 23.7566 23.8 23.7601L23.7932 27.1734ZM22.9467 20.3468C21.5393 20.3468 20.3971 18.8176 20.3971 16.9334C20.3971 15.0493 21.5393 13.5201 22.9467 13.5201C24.3541 13.5201 25.4964 15.0493 25.4964 16.9334C25.4964 18.8176 24.3541 20.3468 22.9467 20.3468Z" fill="white"/>
</svg>
