<svg width="35" height="22" viewBox="0 0 35 22" fill="none" xmlns="http://www.w3.org/2000/svg">
<path d="M23.5714 9.42857C26.18 9.42857 28.27 7.32286 28.27 4.71429C28.27 2.10571 26.18 0 23.5714 0C20.9629 0 18.8571 2.10571 18.8571 4.71429C18.8571 7.32286 20.9629 9.42857 23.5714 9.42857ZM11 9.42857C13.6086 9.42857 15.6986 7.32286 15.6986 4.71429C15.6986 2.10571 13.6086 0 11 0C8.39143 0 6.28571 2.10571 6.28571 4.71429C6.28571 7.32286 8.39143 9.42857 11 9.42857ZM11 12.5714C7.33857 12.5714 0 14.41 0 18.0714V22H22V18.0714C22 14.41 14.6614 12.5714 11 12.5714ZM23.5714 12.5714C23.1157 12.5714 22.5971 12.6029 22.0471 12.65C23.87 13.97 25.1429 15.7457 25.1429 18.0714V22H34.5714V18.0714C34.5714 14.41 27.2329 12.5714 23.5714 12.5714Z" fill="white"/>
</svg>
