<svg width="31" height="30" viewBox="0 0 31 30" fill="none" xmlns="http://www.w3.org/2000/svg">
<path fill-rule="evenodd" clip-rule="evenodd" d="M21.5649 1.39117C21.9701 -0.456333 24.6074 -0.467396 25.0281 1.38011L25.0502 1.46861L25.0879 1.63898C25.575 3.70554 27.2468 5.28532 29.3437 5.64819C31.2746 5.9845 31.2746 8.75465 29.3437 9.09097C28.3141 9.2712 27.3606 9.75084 26.6024 10.4699C25.8442 11.1889 25.3151 12.1154 25.0812 13.1334L25.0281 13.3613C24.6074 15.2065 21.9724 15.1977 21.5649 13.3458L21.5206 13.1511C21.2969 12.1292 20.7736 11.1972 20.0176 10.4737C19.2616 9.75019 18.3072 9.26806 17.2759 9.08875C15.3494 8.75244 15.3494 5.98671 17.2759 5.65261C18.3044 5.47414 19.2568 4.99444 20.0121 4.27436C20.7674 3.55428 21.2917 2.62626 21.5184 1.60801L21.5494 1.4664L21.5649 1.39117ZM19.1713 13.6666C19.052 13.1134 18.7709 12.6082 18.3636 12.215C17.9563 11.8218 17.4413 11.5585 16.8839 11.4584V27.4222C17.6155 28.3679 18.5892 29.0984 19.7021 29.5367C20.8149 29.9749 22.0256 30.1046 23.2062 29.9119C24.3867 29.7192 25.4932 29.2114 26.4087 28.4421C27.3242 27.6728 28.0146 26.6706 28.4071 25.5415C27.8173 25.4839 27.2379 25.3478 26.6844 25.1366C25.3669 24.641 23.9342 23.6653 22.7584 21.9594C22.5502 21.6571 22.4707 21.2847 22.5374 20.9239C22.604 20.5631 22.8114 20.2435 23.1138 20.0355C23.4163 19.8275 23.789 19.748 24.1501 19.8146C24.5112 19.8812 24.831 20.0884 25.0391 20.3906C25.885 21.6186 26.8549 22.247 27.6586 22.5479C28.0661 22.7028 28.4292 22.7692 28.7126 22.7913L28.7636 22.7957C30.1364 21.3044 31 18.4192 31 16.0097C31 14.3857 30.6081 12.7838 29.9305 11.4252L29.7556 11.4584C28.6041 11.6576 27.6874 12.5293 27.4284 13.6666L27.3752 13.8923C26.3832 18.2444 20.1677 18.2179 19.2134 13.8569L19.1713 13.6666ZM14.1161 9.72155C13.6628 9.02033 13.4216 8.20327 13.4216 7.36847C13.4216 6.53367 13.6628 5.71661 14.1161 5.01539V3.86484C13.3472 2.96177 12.3195 2.31622 11.1717 2.01537C10.024 1.71452 8.81145 1.77286 7.69793 2.18251C6.58442 2.59216 5.62353 3.33338 4.94502 4.30609C4.26651 5.2788 3.90308 6.43614 3.90379 7.62181V7.62624C3.99014 8.48914 4.34221 9.13079 4.74964 9.59544C5.25671 10.1729 5.79036 10.4097 5.91657 10.4362C6.09395 10.4765 6.26166 10.5512 6.41012 10.6562C6.55859 10.7612 6.6849 10.8944 6.78185 11.0482C6.87879 11.202 6.94448 11.3734 6.97515 11.5525C7.00582 11.7317 7.00088 11.9151 6.96061 12.0923C6.92033 12.2696 6.84552 12.4372 6.74043 12.5855C6.63534 12.7339 6.50204 12.8601 6.34814 12.9569C6.19423 13.0538 6.02274 13.1195 5.84345 13.1501C5.66417 13.1807 5.48059 13.1758 5.30321 13.1356C4.50607 12.9519 3.4875 12.3501 2.66821 11.4208C2.33601 11.0423 2.05122 10.6247 1.82014 10.1773C0.690857 11.7372 0 13.8547 0 16.0097C0 17.636 0.394143 19.479 1.0695 20.9615C1.24664 20.7609 1.43855 20.5809 1.64521 20.4216C1.78662 20.2995 1.9513 20.2074 2.12933 20.1506C2.30736 20.0939 2.49504 20.0737 2.68107 20.0914C2.86709 20.1091 3.04761 20.1643 3.21172 20.2536C3.37583 20.3429 3.52015 20.4644 3.63597 20.611C3.75179 20.7575 3.83671 20.926 3.88562 21.1062C3.93452 21.2864 3.94639 21.4746 3.92052 21.6595C3.89464 21.8445 3.83156 22.0222 3.73506 22.1821C3.63857 22.342 3.51067 22.4808 3.35907 22.5899C2.96493 22.9019 2.55307 23.5723 2.30064 24.3489C2.49291 25.6345 3.05908 26.8353 3.92877 27.802C4.79845 28.7687 5.9333 29.4587 7.19223 29.7861C8.45116 30.1136 9.77864 30.0641 11.0096 29.6438C12.2407 29.2235 13.3209 28.451 14.1161 27.4222V19.302C13.2247 20.0227 12.1448 20.472 11.005 20.5964C10.8243 20.6166 10.6413 20.601 10.4666 20.5506C10.2919 20.5001 10.1289 20.4158 9.98682 20.3024C9.84474 20.189 9.72641 20.0487 9.63858 19.8896C9.55075 19.7305 9.49514 19.5556 9.47493 19.3751C9.45472 19.1945 9.4703 19.0117 9.52079 18.8371C9.57128 18.6625 9.65568 18.4996 9.76918 18.3577C9.88268 18.2157 10.0231 18.0974 10.1823 18.0097C10.3415 17.9219 10.5165 17.8664 10.6972 17.8462C11.8243 17.7223 12.6436 17.074 13.2281 16.2221C13.8216 15.3592 14.0784 14.4122 14.1161 13.9587V9.72155Z" fill="white"/>
</svg>
