<svg width="15" height="16" viewBox="0 0 15 16" fill="none" xmlns="http://www.w3.org/2000/svg">
<path d="M3.87266 1.37302C4.0226 1.22308 4.21938 1.13075 4.42854 1.10992L4.519 1.10509H13.518C13.7604 1.10514 13.993 1.20164 14.1644 1.37302C14.3356 1.54428 14.4315 1.77652 14.4316 2.01867V11.0094C14.4275 11.249 14.3297 11.4774 14.1589 11.6454C13.9879 11.8134 13.7577 11.9078 13.518 11.9078C13.2784 11.9078 13.0482 11.8134 12.8772 11.6454C12.7064 11.4774 12.6072 11.249 12.6031 11.0094L12.5181 5.5107L12.4995 4.33057L2.16566 14.6644C1.99427 14.8358 1.7617 14.9323 1.51933 14.9323C1.27697 14.9323 1.04439 14.8357 0.872985 14.6644C0.7016 14.493 0.6051 14.2604 0.605058 14.0181C0.605058 13.7757 0.70157 13.5432 0.872985 13.3717L11.2068 3.03789L10.026 3.01856L4.5266 2.93293H4.51831C4.27627 2.93272 4.04388 2.8368 3.87266 2.6657C3.72282 2.51585 3.63047 2.31883 3.60957 2.10982L3.60474 2.01936C3.60477 1.77702 3.70134 1.5444 3.87266 1.37302Z" fill="#8C0738" stroke="#8C0738"/>
</svg>
