<svg width="15" height="16" viewBox="0 0 15 16" fill="none" xmlns="http://www.w3.org/2000/svg">
<path d="M3.10504 2.01905C3.1051 1.64409 3.25408 1.2845 3.51922 1.01936C3.78436 0.754219 4.14394 0.60524 4.51891 0.605184L13.5181 0.605184C13.893 0.605241 14.2526 0.75422 14.5177 1.01936C14.7829 1.2845 14.9319 1.64409 14.9319 2.01905L14.9319 11.0182C14.9255 11.3889 14.7737 11.7423 14.5092 12.0022C14.2448 12.2621 13.8888 12.4077 13.5181 12.4077C13.1473 12.4077 12.7913 12.2621 12.5269 12.0022C12.2624 11.7423 12.1106 11.3889 12.1042 11.0182L12.0182 5.51872L2.5191 15.0178C2.25391 15.283 1.89423 15.432 1.51919 15.432C1.14415 15.432 0.784478 15.283 0.519286 15.0178C0.254095 14.7526 0.105112 14.393 0.105112 14.0179C0.105112 13.6429 0.254095 13.2832 0.519286 13.018L10.0184 3.51891L4.51891 3.43292C4.14394 3.43286 3.78436 3.28388 3.51922 3.01874C3.25408 2.7536 3.1051 2.39401 3.10504 2.01905Z" fill="#411310"/>
</svg>
