<svg width="201" height="60" viewBox="0 0 201 60" fill="none" xmlns="http://www.w3.org/2000/svg">
<path d="M74.04 3.344C76.408 3.344 78.4773 3.824 80.248 4.784C82.04 5.744 83.416 7.07733 84.376 8.784C85.336 10.4907 85.816 12.432 85.816 14.608C85.816 16.7627 85.336 18.704 84.376 20.432C83.416 22.16 82.04 23.5253 80.248 24.528C78.4773 25.5093 76.408 26 74.04 26H64.6V3.344H74.04ZM73.4 19.664C75 19.664 76.2693 19.2267 77.208 18.352C78.1467 17.4773 78.616 16.2293 78.616 14.608C78.616 12.9867 78.1467 11.7387 77.208 10.864C76.2693 9.98933 75 9.552 73.4 9.552H71.704V19.664H73.4ZM102.909 22.576H95.3573L94.2373 26H86.7812L95.0693 3.344H103.261L111.517 26H104.029L102.909 22.576ZM101.181 17.232L99.1333 10.928L97.0853 17.232H101.181ZM121.995 26.224C119.286 26.224 117.046 25.5947 115.275 24.336C113.526 23.056 112.577 21.1893 112.427 18.736H119.979C120.086 20.0373 120.662 20.688 121.707 20.688C122.091 20.688 122.411 20.6027 122.667 20.432C122.945 20.24 123.083 19.952 123.083 19.568C123.083 19.0347 122.795 18.608 122.219 18.288C121.643 17.9467 120.747 17.5627 119.531 17.136C118.081 16.624 116.875 16.1227 115.915 15.632C114.977 15.1413 114.166 14.4267 113.483 13.488C112.801 12.5493 112.47 11.344 112.491 9.872C112.491 8.4 112.865 7.152 113.611 6.128C114.379 5.08267 115.414 4.29333 116.715 3.76C118.038 3.22667 119.521 2.96 121.163 2.96C123.937 2.96 126.134 3.6 127.755 4.88C129.398 6.16 130.262 7.96267 130.347 10.288H122.699C122.678 9.648 122.518 9.18933 122.219 8.912C121.921 8.63467 121.558 8.496 121.131 8.496C120.833 8.496 120.587 8.60267 120.395 8.816C120.203 9.008 120.107 9.28533 120.107 9.648C120.107 10.16 120.385 10.5867 120.939 10.928C121.515 11.248 122.422 11.6427 123.659 12.112C125.089 12.6453 126.262 13.1573 127.179 13.648C128.118 14.1387 128.929 14.8213 129.611 15.696C130.294 16.5707 130.635 17.6693 130.635 18.992C130.635 20.3787 130.294 21.6267 129.611 22.736C128.929 23.824 127.937 24.6773 126.635 25.296C125.334 25.9147 123.787 26.224 121.995 26.224ZM154.091 3.344V26H146.987V17.168H140.235V26H133.131V3.344H140.235V11.504H146.987V3.344H154.091Z" fill="#A22020"/>
<path d="M79.768 44.384C81.1333 44.704 82.1893 45.3653 82.936 46.368C83.704 47.3493 84.088 48.4907 84.088 49.792C84.088 51.776 83.4267 53.312 82.104 54.4C80.8027 55.4667 78.9253 56 76.472 56H64.6V33.344H76.152C78.456 33.344 80.2693 33.8453 81.592 34.848C82.9147 35.8507 83.576 37.312 83.576 39.232C83.576 40.5547 83.224 41.6747 82.52 42.592C81.8373 43.488 80.92 44.0853 79.768 44.384ZM71.704 42.176H74.456C75.096 42.176 75.5653 42.048 75.864 41.792C76.184 41.536 76.344 41.1413 76.344 40.608C76.344 40.0533 76.184 39.648 75.864 39.392C75.5653 39.1147 75.096 38.976 74.456 38.976H71.704V42.176ZM74.936 50.304C75.576 50.304 76.0453 50.1867 76.344 49.952C76.664 49.696 76.824 49.2907 76.824 48.736C76.824 47.648 76.1947 47.104 74.936 47.104H71.704V50.304H74.936ZM97.515 56.224C95.3817 56.224 93.419 55.7227 91.627 54.72C89.8563 53.7173 88.4483 52.3307 87.403 50.56C86.3577 48.7893 85.835 46.7947 85.835 44.576C85.835 42.3573 86.3577 40.3627 87.403 38.592C88.4483 36.8213 89.8563 35.4453 91.627 34.464C93.419 33.4613 95.3817 32.96 97.515 32.96C99.6483 32.96 101.6 33.4613 103.371 34.464C105.142 35.4453 106.539 36.8213 107.563 38.592C108.608 40.3627 109.131 42.3573 109.131 44.576C109.131 46.7947 108.608 48.7893 107.563 50.56C106.539 52.3307 105.131 53.7173 103.339 54.72C101.568 55.7227 99.627 56.224 97.515 56.224ZM97.515 49.6C98.923 49.6 100.011 49.152 100.779 48.256C101.547 47.3387 101.931 46.112 101.931 44.576C101.931 43.0187 101.547 41.792 100.779 40.896C100.011 39.9787 98.923 39.52 97.515 39.52C96.0857 39.52 94.987 39.9787 94.219 40.896C93.451 41.792 93.067 43.0187 93.067 44.576C93.067 46.112 93.451 47.3387 94.219 48.256C94.987 49.152 96.0857 49.6 97.515 49.6ZM126.222 52.576H118.67L117.55 56H110.094L118.382 33.344H126.574L134.83 56H127.342L126.222 52.576ZM124.494 47.232L122.446 40.928L120.398 47.232H124.494ZM147.836 56L143.58 47.872H143.548V56H136.444V33.344H147.004C148.838 33.344 150.406 33.6747 151.708 34.336C153.009 34.976 153.98 35.8613 154.62 36.992C155.281 38.1013 155.612 39.36 155.612 40.768C155.612 42.2827 155.185 43.6267 154.332 44.8C153.5 45.9733 152.294 46.816 150.716 47.328L155.644 56H147.836ZM143.548 43.136H146.364C147.046 43.136 147.558 42.9867 147.9 42.688C148.241 42.368 148.412 41.8773 148.412 41.216C148.412 40.6187 148.23 40.1493 147.868 39.808C147.526 39.4667 147.025 39.296 146.364 39.296H143.548V43.136ZM167.321 33.344C169.689 33.344 171.759 33.824 173.529 34.784C175.321 35.744 176.697 37.0773 177.657 38.784C178.617 40.4907 179.097 42.432 179.097 44.608C179.097 46.7627 178.617 48.704 177.657 50.432C176.697 52.16 175.321 53.5253 173.529 54.528C171.759 55.5093 169.689 56 167.321 56H157.881V33.344H167.321ZM166.681 49.664C168.281 49.664 169.551 49.2267 170.489 48.352C171.428 47.4773 171.897 46.2293 171.897 44.608C171.897 42.9867 171.428 41.7387 170.489 40.864C169.551 39.9893 168.281 39.552 166.681 39.552H164.985V49.664H166.681ZM190.527 56.224C187.817 56.224 185.577 55.5947 183.807 54.336C182.057 53.056 181.108 51.1893 180.959 48.736H188.51C188.617 50.0373 189.193 50.688 190.239 50.688C190.623 50.688 190.943 50.6027 191.199 50.432C191.476 50.24 191.615 49.952 191.615 49.568C191.615 49.0347 191.327 48.608 190.751 48.288C190.175 47.9467 189.279 47.5627 188.062 47.136C186.612 46.624 185.407 46.1227 184.447 45.632C183.508 45.1413 182.697 44.4267 182.015 43.488C181.332 42.5493 181.001 41.344 181.023 39.872C181.023 38.4 181.396 37.152 182.143 36.128C182.911 35.0827 183.945 34.2933 185.247 33.76C186.569 33.2267 188.052 32.96 189.695 32.96C192.468 32.96 194.665 33.6 196.287 34.88C197.929 36.16 198.793 37.9627 198.878 40.288H191.231C191.209 39.648 191.049 39.1893 190.751 38.912C190.452 38.6347 190.089 38.496 189.663 38.496C189.364 38.496 189.119 38.6027 188.927 38.816C188.735 39.008 188.639 39.2853 188.639 39.648C188.639 40.16 188.916 40.5867 189.47 40.928C190.047 41.248 190.953 41.6427 192.191 42.112C193.62 42.6453 194.793 43.1573 195.711 43.648C196.649 44.1387 197.46 44.8213 198.142 45.696C198.825 46.5707 199.167 47.6693 199.167 48.992C199.167 50.3787 198.825 51.6267 198.142 52.736C197.46 53.824 196.468 54.6773 195.167 55.296C193.865 55.9147 192.319 56.224 190.527 56.224Z" fill="#F72120"/>
<path d="M34.8333 20C33.9361 20 33.1845 19.696 32.5786 19.088C31.9727 18.48 31.6687 17.7284 31.6666 16.8333V4.16667C31.6666 3.26944 31.9706 2.51789 32.5786 1.912C33.1866 1.30611 33.9382 1.00211 34.8333 1H53.8333C54.7305 1 55.4831 1.304 56.0911 1.912C56.6991 2.52 57.0021 3.27156 57 4.16667V16.8333C57 17.7306 56.696 18.4832 56.088 19.0912C55.48 19.6992 54.7284 20.0021 53.8333 20H34.8333Z" fill="#A22120"/>
<path d="M3.16667 32.6667C2.26944 32.6667 1.51789 32.3627 0.912 31.7547C0.306111 31.1467 0.00211111 30.3951 0 29.5V4.16667C0 3.26944 0.304 2.51789 0.912 1.912C1.52 1.30611 2.27156 1.00211 3.16667 1H22.1667C23.0639 1 23.8165 1.304 24.4245 1.912C25.0325 2.52 25.3354 3.27156 25.3333 4.16667V29.5C25.3333 30.3972 25.0293 31.1498 24.4213 31.7578C23.8133 32.3658 23.0618 32.6688 22.1667 32.6667H3.16667Z" fill="#710100"/>
<path d="M34.8333 57.9999C33.9361 57.9999 33.1845 57.6959 32.5786 57.0879C31.9727 56.4799 31.6687 55.7284 31.6666 54.8333V29.4999C31.6666 28.6027 31.9706 27.8511 32.5786 27.2453C33.1866 26.6394 33.9382 26.3354 34.8333 26.3333H53.8333C54.7305 26.3333 55.4831 26.6373 56.0911 27.2453C56.6991 27.8533 57.0021 28.6048 57 29.4999V54.8333C57 55.7305 56.696 56.4831 56.088 57.0911C55.48 57.6991 54.7284 58.002 53.8333 57.9999H34.8333Z" fill="#550000"/>
<path d="M3.16667 58C2.26944 58 1.51789 57.696 0.912 57.088C0.306111 56.48 0.00211111 55.7284 0 54.8333V42.1667C0 41.2694 0.304 40.5179 0.912 39.912C1.52 39.3061 2.27156 39.0021 3.16667 39H22.1667C23.0639 39 23.8165 39.304 24.4245 39.912C25.0325 40.52 25.3354 41.2716 25.3333 42.1667V54.8333C25.3333 55.7306 25.0293 56.4832 24.4213 57.0912C23.8133 57.6992 23.0618 58.0021 22.1667 58H3.16667Z" fill="#D20100"/>
</svg>
